# xmcd
#
# Track frame offsets:
#	150
#	13049
#	16434
#	30154
#	48952
#	67854
#	84252
#	98121
#	115132
#	133185
#	150175
#	167641
#	184556
#	196618
#
# Disc length: 2861 seconds
#
# Revision: 1
# Processed by: cddbd v1.5.1PL0 Copyright (c) Steve Scherf et al.
# Submitted via: EasyCDDAExtractor 7.7.1.2
#
DISCID=950b2b0e
DTITLE=Neal McCoy - That's Life
DYEAR=2005
DGENRE=Country
TTITLE0=Got Mud
TTITLE1=Intro
TTITLE2=The Last Of A Dying Breed
TTITLE3=That's Life
TTITLE4=All Over Again
TTITLE5=Billy's Got His Beer Goggles On
TTITLE6=That's A Picture
TTITLE7=You Let Me Be The Hero
TTITLE8=Tailgate
TTITLE9=Tails I Lose
TTITLE10=Jessie
TTITLE11=You're My Jamaica
TTITLE12=Head South
TTITLE13=Hillbilly Rap (Live)
EXTD=
EXTT0=
EXTT1=
EXTT2=
EXTT3=
EXTT4=
EXTT5=
EXTT6=
EXTT7=
EXTT8=
EXTT9=
EXTT10=
EXTT11=
EXTT12=
EXTT13=
PLAYORDER=
